# xmcd CD database file
#
# Track frame offsets:
#	150
#	7943
#	33954
#	64573
#	79592
#	109356
#	132516
#	162283
#	176285
#	246333
#
# Disc length: 3427 seconds
#
# Revision: 0
# Processed by: cddbd v1.5.2PL0 Copyright (c) Steve Scherf et al.
# Submitted via: CDex 1.51
#
DISCID=760d610a
DTITLE=Gil Evans - L'Architetto del Cool [CD-46)
DYEAR=2004
DGENRE=Jazz
TTITLE0=Eleven
TTITLE1=Ella Speed
TTITLE2=Blues in Orbit
TTITLE3=Summertime
TTITLE4=Las Vegas Tango
TTITLE5=Saeta
TTITLE6=Thoroughbred
TTITLE7=Spaced
TTITLE8=La Nevada
TTITLE9=So Long
EXTD=YEAR: 2004
EXTT0=
EXTT1=
EXTT2=
EXTT3=
EXTT4=
EXTT5=
EXTT6=
EXTT7=
EXTT8=
EXTT9=
PLAYORDER=
